<svg width="451" height="131" viewBox="0 0 451 131" fill="none" xmlns="http://www.w3.org/2000/svg">
<path d="M6.32102 107V34.2727H21.6974V66.3395H22.6562L48.8281 34.2727H67.2585L40.2699 66.8366L67.5781 107H49.1832L29.2614 77.0994L21.6974 86.3324V107H6.32102ZM76.2663 107V34.2727H104.96C110.452 34.2727 115.139 35.2552 119.022 37.2202C122.928 39.1615 125.899 41.9195 127.935 45.4943C129.995 49.0455 131.025 53.224 131.025 58.0298C131.025 62.8594 129.983 67.0142 127.9 70.4943C125.817 73.9508 122.798 76.6023 118.844 78.4489C114.915 80.2955 110.156 81.2188 104.569 81.2188H85.3572V68.8608H102.083C105.019 68.8608 107.457 68.4583 109.398 67.6534C111.34 66.8485 112.784 65.6411 113.731 64.0312C114.701 62.4214 115.187 60.4209 115.187 58.0298C115.187 55.6151 114.701 53.5791 113.731 51.9219C112.784 50.2647 111.328 49.0099 109.363 48.1577C107.422 47.2817 104.971 46.8438 102.012 46.8438H91.6428V107H76.2663ZM115.542 73.9034L133.617 107H116.643L98.9581 73.9034H115.542ZM155.427 107H138.95L164.056 34.2727H183.871L208.942 107H192.465L174.248 50.892H173.68L155.427 107ZM154.397 78.4134H193.317V90.4162H154.397V78.4134ZM218.705 107V52.4545H233.833V107H218.705ZM226.304 45.4233C224.055 45.4233 222.126 44.6776 220.516 43.1861C218.93 41.6709 218.137 39.8598 218.137 37.7528C218.137 35.6695 218.93 33.8821 220.516 32.3906C222.126 30.8755 224.055 30.1179 226.304 30.1179C228.553 30.1179 230.471 30.8755 232.057 32.3906C233.667 33.8821 234.472 35.6695 234.472 37.7528C234.472 39.8598 233.667 41.6709 232.057 43.1861C230.471 44.6776 228.553 45.4233 226.304 45.4233ZM247.235 107V34.2727H262.612V66.3395H263.57L289.742 34.2727H308.173L281.184 66.8366L308.492 107H290.097L270.175 77.0994L262.612 86.3324V107H247.235ZM362.102 34.2727H377.479V81.5028C377.479 86.8059 376.212 91.446 373.679 95.4233C371.17 99.4006 367.654 102.502 363.132 104.727C358.61 106.929 353.343 108.03 347.33 108.03C341.293 108.03 336.013 106.929 331.491 104.727C326.97 102.502 323.454 99.4006 320.945 95.4233C318.435 91.446 317.18 86.8059 317.18 81.5028V34.2727H332.557V80.1889C332.557 82.9588 333.161 85.4209 334.368 87.5753C335.599 89.7296 337.327 91.4223 339.553 92.6534C341.778 93.8845 344.37 94.5 347.33 94.5C350.313 94.5 352.905 93.8845 355.107 92.6534C357.332 91.4223 359.048 89.7296 360.256 87.5753C361.487 85.4209 362.102 82.9588 362.102 80.1889V34.2727ZM391.13 107V34.2727H420.249C425.599 34.2727 430.062 35.0658 433.637 36.652C437.212 38.2382 439.899 40.4399 441.698 43.2571C443.497 46.0507 444.397 49.2704 444.397 52.9162C444.397 55.7571 443.828 58.2547 442.692 60.4091C441.556 62.5398 439.993 64.2917 438.005 65.6648C436.04 67.0142 433.791 67.973 431.257 68.5412V69.2514C434.027 69.3698 436.62 70.151 439.034 71.5952C441.473 73.0393 443.45 75.0634 444.965 77.6676C446.48 80.2481 447.238 83.3258 447.238 86.9006C447.238 90.7595 446.279 94.2041 444.361 97.2344C442.467 100.241 439.662 102.62 435.945 104.372C432.228 106.124 427.647 107 422.202 107H391.13ZM406.506 94.429H419.042C423.327 94.429 426.452 93.6122 428.417 91.9787C430.382 90.3215 431.364 88.1198 431.364 85.3736C431.364 83.3613 430.879 81.5857 429.908 80.0469C428.937 78.508 427.552 77.3007 425.753 76.4247C423.978 75.5488 421.859 75.1108 419.397 75.1108H406.506V94.429ZM406.506 64.706H417.905C420.012 64.706 421.882 64.339 423.516 63.6051C425.173 62.8475 426.475 61.7822 427.422 60.4091C428.393 59.036 428.878 57.3906 428.878 55.473C428.878 52.8452 427.943 50.7263 426.073 49.1165C424.226 47.5066 421.598 46.7017 418.189 46.7017H406.506V64.706Z" fill="white"/>
<path d="M203.797 30.4447C208.399 25.2124 216.371 24.7009 221.603 29.3023L234.462 40.6112V40.6112C229.421 46.3432 220.688 46.9035 214.956 41.8627L203.906 32.1452C203.407 31.7057 203.358 30.9444 203.797 30.4447V30.4447Z" fill="white"/>
<path d="M252.498 0.936385C257.746 5.5516 258.259 13.5473 253.643 18.7954L234.158 40.9528L223.887 31.3218L250.796 1.04111C251.238 0.544048 251.998 0.497247 252.498 0.936385V0.936385Z" fill="white"/>
</svg>
